<?xml version="1.0" encoding="UTF-8" standalone="no"?>
<!-- Created with Inkscape (http://www.inkscape.org/) -->

<svg
   xmlns:dc="http://purl.org/dc/elements/1.1/"
   xmlns:cc="http://creativecommons.org/ns#"
   xmlns:rdf="http://www.w3.org/1999/02/22-rdf-syntax-ns#"
   xmlns:svg="http://www.w3.org/2000/svg"
   xmlns="http://www.w3.org/2000/svg"
   xmlns:sodipodi="http://sodipodi.sourceforge.net/DTD/sodipodi-0.dtd"
   xmlns:inkscape="http://www.inkscape.org/namespaces/inkscape"
   width="273"
   height="156"
   viewBox="0 0 272.99999 155.99999"
   id="svg3575"
   version="1.1"
   inkscape:version="0.91 r13725"
   sodipodi:docname="Formenwerkstatt_Logo.svg">
  <defs
     id="defs3577" />
  <sodipodi:namedview
     id="base"
     pagecolor="#ffffff"
     bordercolor="#666666"
     borderopacity="1.0"
     inkscape:pageopacity="0.0"
     inkscape:pageshadow="2"
     inkscape:zoom="2.8"
     inkscape:cx="80.442172"
     inkscape:cy="13.834018"
     inkscape:document-units="px"
     inkscape:current-layer="layer1"
     showgrid="false"
     inkscape:window-width="1920"
     inkscape:window-height="1176"
     inkscape:window-x="0"
     inkscape:window-y="24"
     inkscape:window-maximized="1"
     fit-margin-top="1"
     fit-margin-left="1"
     fit-margin-right="1"
     fit-margin-bottom="1"
     units="px" />
  <metadata
     id="metadata3580">
    <rdf:RDF>
      <cc:Work
         rdf:about="">
        <dc:format>image/svg+xml</dc:format>
        <dc:type
           rdf:resource="http://purl.org/dc/dcmitype/StillImage" />
        <dc:title></dc:title>
      </cc:Work>
    </rdf:RDF>
  </metadata>
  <g
     inkscape:label="Ebene 1"
     inkscape:groupmode="layer"
     id="layer1"
     transform="translate(-70.423155,-221.62653)">
    <path
       d="m 124.7069,235.44587 c 0.27075,-5.77413 -4.51387,-5.25538 -28.424743,-12.74488 l -20.409125,0 c -1.287625,0 -1.815625,0.37488 -1.803875,1.69612 l 0.0485,36.11763 -0.05488,42.84075 3.07525,0 0,49.01525 3.954375,0 0,20.45375 c 0,1.16088 2.957875,5.2845 2.957875,3.099 l 0,-23.55275 6.865125,0 0,-49.01525 7.091625,0 c 0.42375,0 1.444625,0 -2.353125,-14.37337 l -0.063,-13.43163 c 0,0 0.1885,-3.07525 3.200625,-3.82863 3.013623,-0.75324 20.839243,-5.83687 20.839243,-5.83687 0,0 4.50425,-0.22325 4.94325,-5.37025 l -28.480743,0 0,1.102 -5.177875,0.006 0,-17.32962 -0.47725,-0.9475 0.0032,-8.46813 4.498875,0 0.69875,0.568 29.067873,0 z"
       style="fill:#0052a5;fill-opacity:1;fill-rule:evenodd;stroke:none"
       id="path3716"
       inkscape:connector-curvature="0" />
    <path
       d="m 304.68991,263.04999 c 1.95799,-0.56725 4.48262,-1.09525 7.57525,-1.58487 3.09187,-0.48975 6.33862,-0.73413 9.73987,-0.73413 3.45225,0 6.3255,0.451 8.61875,1.35275 2.29313,0.90212 4.10913,2.177 5.44925,3.82613 1.34,1.649 2.29312,3.60737 2.8605,5.87512 0.5665,2.26738 0.85,4.79237 0.85,7.57488 l 0,22.95774 -11.5175,0 0,-21.56587 c 0,-3.71063 -0.48975,-6.339 -1.46875,-7.88462 -0.97937,-1.54601 -2.80838,-2.31951 -5.4885,-2.31951 -0.82425,0 -1.70012,0.039 -2.62812,0.11588 -0.92763,0.0776 -1.75213,0.168 -2.47363,0.27075 l 0,31.38337 -11.51712,0 0,-39.26762 z"
       style="fill:#0052a5;fill-opacity:1;fill-rule:nonzero;stroke:none"
       id="path3718"
       inkscape:connector-curvature="0" />
    <path
       d="m 288.0689,277.89187 c -0.051,-0.979 -0.21825,-1.93288 -0.502,-2.8605 -0.2835,-0.92763 -0.7215,-1.75175 -1.31387,-2.47388 -0.59288,-0.72112 -1.3405,-1.31362 -2.24225,-1.77737 -0.90138,-0.46388 -2.02213,-0.69625 -3.3615,-0.69625 -1.28913,0 -2.39675,0.21925 -3.325,0.65725 -0.927,0.43862 -1.70013,1.018 -2.31838,1.73912 -0.61875,0.72175 -1.09525,1.55938 -1.43012,2.5125 -0.33488,0.9535 -0.57975,1.92013 -0.7345,2.89913 l 15.22762,0 z m -27.05412,4.40575 c 0,-3.60738 0.55375,-6.7635 1.66175,-9.4695 1.108,-2.70526 2.56325,-4.95951 4.3675,-6.7635 1.8035,-1.80388 3.87775,-3.16913 6.22237,-4.09638 2.345,-0.92838 4.75413,-1.39212 7.22763,-1.39212 5.77137,0 10.33237,1.76525 13.68212,5.2955 3.34988,3.52975 5.02413,8.72175 5.02413,15.57525 0,0.67 -0.0259,1.40462 -0.0772,2.20325 -0.051,0.799 -0.10275,1.50762 -0.15413,2.126 l -26.12762,0 c 0.25787,2.3705 1.3655,4.25125 3.32425,5.64274 1.95812,1.39175 4.58612,2.087 7.88462,2.087 2.11288,0 4.18675,-0.19312 6.22238,-0.57975 2.03563,-0.38624 3.6975,-0.86312 4.98575,-1.43012 l 1.546,9.353 c -0.61863,0.30963 -1.44288,0.61863 -2.47363,0.92762 -1.03075,0.30963 -2.177,0.58038 -3.44012,0.81176 -1.26213,0.2325 -2.61538,0.42525 -4.05813,0.58 -1.44287,0.15449 -2.88575,0.23174 -4.32862,0.23174 -3.65875,0 -6.841,-0.54062 -9.546,-1.6235 -2.706,-1.08175 -4.94788,-2.56362 -6.7255,-4.44437 -1.77775,-1.88075 -3.09225,-4.1095 -3.94225,-6.68625 -0.8505,-2.57662 -1.27525,-5.35963 -1.27525,-8.34837"
       style="fill:#0052a5;fill-opacity:1;fill-rule:nonzero;stroke:none"
       id="path3720"
       inkscape:connector-curvature="0" />
    <path
       d="m 222.05465,280.75174 c 0,-3.71063 -0.47662,-6.339 -1.43012,-7.88462 -0.95312,-1.54601 -2.589,-2.31951 -4.90813,-2.31951 -0.72175,0 -1.46875,0.039 -2.24187,0.11588 -0.77275,0.0776 -1.52038,0.168 -2.2415,0.27075 l 0,31.38337 -11.5175,0 0,-39.26762 c 0.979,-0.2575 2.12525,-0.52825 3.4395,-0.81138 1.3145,-0.28387 2.70525,-0.54175 4.174,-0.7735 1.46875,-0.23137 2.97675,-0.41175 4.52262,-0.54112 1.54525,-0.12863 3.06575,-0.193 4.56,-0.193 2.93738,0 5.32088,0.37375 7.15038,1.12075 1.82937,0.74762 3.33675,1.63625 4.52225,2.66662 1.64912,-1.18525 3.54262,-2.1125 5.68175,-2.7825 2.13837,-0.66975 4.10912,-1.00487 5.91337,-1.00487 3.24638,0 5.91313,0.451 8.0005,1.35275 2.087,0.90212 3.74875,2.177 4.98538,3.82612 1.23662,1.649 2.087,3.60738 2.55087,5.87513 0.46375,2.26737 0.69588,4.79237 0.69588,7.57487 l 0,22.95775 -11.5175,0 0,-21.56587 c 0,-3.71063 -0.477,-6.339 -1.43013,-7.88463 -0.9535,-1.546 -2.58975,-2.3195 -4.90812,-2.3195 -0.619,0 -1.48225,0.15488 -2.59025,0.46388 -1.10763,0.30962 -2.0225,0.69625 -2.74425,1.16012 0.36112,1.1845 0.59312,2.43425 0.69587,3.74838 0.10313,1.31425 0.15488,2.7185 0.15488,4.213 l 0,22.18462 -11.51788,0 0,-21.56587 z"
       style="fill:#0052a5;fill-opacity:1;fill-rule:nonzero;stroke:none"
       id="path3722"
       inkscape:connector-curvature="0" />
    <path
       d="m 192.44853,271.86224 c -1.03,-0.25762 -2.24112,-0.52837 -3.63263,-0.81175 -1.391,-0.2835 -2.886,-0.42488 -4.48362,-0.42488 -0.72137,0 -1.58463,0.0641 -2.5895,0.19313 -1.00488,0.12862 -1.76525,0.27 -2.28038,0.42513 l 0,31.07375 -11.51762,0 0,-38.49475 c 2.06187,-0.7215 4.4965,-1.40463 7.30462,-2.04838 2.80913,-0.64387 5.93963,-0.96637 9.39226,-0.96637 0.61825,0 1.3655,0.0386 2.24137,0.11587 0.87663,0.0772 1.75225,0.18075 2.62812,0.30975 0.87663,0.12825 1.7525,0.2835 2.62876,0.46313 0.87599,0.18062 1.62324,0.39962 2.24112,0.65725 l -1.9325,9.50812 z"
       style="fill:#0052a5;fill-opacity:1;fill-rule:nonzero;stroke:none"
       id="path3724"
       inkscape:connector-curvature="0" />
    <path
       d="m 150.70628,281.91074 c 0,-3.555 -0.70825,-6.35112 -2.12525,-8.387 -1.41737,-2.03538 -3.44063,-3.05337 -6.06862,-3.05337 -2.62738,0 -4.66338,1.01799 -6.10651,3.05337 -1.44287,2.03588 -2.16425,4.832 -2.16425,8.387 0,3.556 0.72138,6.37725 2.16425,8.46487 1.44313,2.08675 3.47913,3.13025 6.10651,3.13025 2.62799,0 4.65125,-1.0435 6.06862,-3.13025 1.417,-2.08762 2.12525,-4.90887 2.12525,-8.46487 z m 11.74962,0 c 0,3.19562 -0.46387,6.12 -1.3915,8.7735 -0.92725,2.65438 -2.26737,4.92137 -4.0195,6.80325 -1.75187,1.88 -3.85225,3.336 -6.3,4.36637 -2.44775,1.03113 -5.192,1.54625 -8.2325,1.54625 -2.98875,0 -5.70725,-0.51512 -8.155,-1.54625 -2.44762,-1.03037 -4.54737,-2.48637 -6.3,-4.36637 -1.75212,-1.88188 -3.11775,-4.14887 -4.09675,-6.80325 -0.979,-2.6535 -1.46825,-5.57788 -1.46825,-8.7735 0,-3.19475 0.502,-6.10625 1.50688,-8.73425 1.00525,-2.62888 2.39637,-4.87 4.17437,-6.72563 1.77775,-1.85487 3.89063,-3.29775 6.33863,-4.3285 2.44737,-1.03075 5.11437,-1.54625 8.00012,-1.54625 2.93738,0 5.63063,0.5155 8.07838,1.54625 2.44775,1.03075 4.54712,2.47363 6.3,4.3285 1.75175,1.85563 3.117,4.09675 4.09675,6.72563 0.979,2.628 1.46837,5.5395 1.46837,8.73425"
       style="fill:#0052a5;fill-opacity:1;fill-rule:nonzero;stroke:none"
       id="path3726"
       inkscape:connector-curvature="0" />
    <path
       d="m 126.93703,327.76287 c -1.46587,4.67712 -2.94938,9.00562 -4.45037,12.98475 -1.50088,3.97912 -3.00188,7.85374 -4.50288,11.6235 l -5.07862,0 c -1.84988,-5.3405 -3.482,-10.97788 -4.89538,-16.91151 -1.41375,-5.93399 -2.7315,-12.39162 -3.95325,-19.37262 l 5.34088,0 c 0.4885,2.72263 0.9945,5.44538 1.51825,8.168 0.52337,2.72237 1.06437,5.36675 1.62312,7.932 0.5585,2.56575 1.11688,5.01775 1.67537,7.35625 0.55838,2.339 1.13451,4.50287 1.72763,6.4925 1.3965,-3.66487 2.87975,-7.688 4.4505,-12.0685 1.57075,-4.38062 3.03688,-8.90975 4.39825,-13.58687 l 4.398,0 c 1.36125,4.67712 2.84487,9.20625 4.45037,13.58687 1.60575,4.3805 3.10676,8.40363 4.50275,12.0685 0.55851,-1.9545 1.11688,-4.10137 1.67575,-6.44 0.55838,-2.33862 1.10788,-4.7905 1.649,-7.35625 0.541,-2.56575 1.07325,-5.21825 1.597,-7.95825 0.52363,-2.74037 1.02963,-5.47162 1.51825,-8.19425 l 5.18351,0 c -1.25638,6.981 -2.5915,13.43863 -4.00538,19.37262 -1.41375,5.93363 -3.02813,11.57101 -4.843,16.91151 l -5.07888,0 c -1.53575,-3.76976 -3.03662,-7.64438 -4.5025,-11.6235 -1.46625,-3.97913 -2.93212,-8.30763 -4.39837,-12.98475"
       style="fill:#0052a5;fill-opacity:1;fill-rule:nonzero;stroke:none"
       id="path3728"
       inkscape:connector-curvature="0" />
    <path
       d="m 152.74965,338.81049 c 0,-2.40875 0.34913,-4.51163 1.04713,-6.30913 0.69837,-1.7975 1.62312,-3.28999 2.77512,-4.47662 1.15188,-1.187 2.47813,-2.07713 3.97913,-2.67025 1.50087,-0.5935 3.037,-0.89013 4.60775,-0.89013 3.66475,0 6.47462,1.14313 8.4295,3.42925 1.95475,2.28651 2.932,5.76813 2.932,10.44563 0,0.2095 0,0.47975 0,0.8115 0,0.33162 -0.0173,0.637 -0.0524,0.91625 l -18.63962,0 c 0.2095,2.82725 1.02975,4.97412 2.46088,6.44 1.43112,1.46612 3.66524,2.199 6.70175,2.199 1.71037,0 3.15037,-0.14813 4.31975,-0.44513 1.16924,-0.2965 2.05087,-0.58462 2.644,-0.86387 l 0.68062,4.084 c -0.59313,0.31437 -1.63163,0.64562 -3.11525,0.995 -1.48362,0.349 -3.16775,0.52338 -5.05238,0.52338 -2.37374,0 -4.42424,-0.35788 -6.15224,-1.07326 -1.72776,-0.71537 -3.15,-1.7015 -4.26725,-2.95837 -1.11688,-1.25637 -1.94601,-2.74887 -2.48701,-4.47663 -0.54074,-1.72762 -0.81149,-3.62124 -0.81149,-5.68062 z m 18.692,-2.67013 c 0.0348,-2.19937 -0.51512,-4.00574 -1.64937,-5.41924 -1.1345,-1.41375 -2.69638,-2.12063 -4.686,-2.12063 -1.11688,0 -2.103,0.21825 -2.95825,0.6545 -0.855,0.4365 -1.57963,1.00338 -2.17288,1.70175 -0.5935,0.69812 -1.05587,1.501 -1.3875,2.4085 -0.33162,0.90737 -0.54987,1.8325 -0.6545,2.77512 l 13.5085,0 z"
       style="fill:#0052a5;fill-opacity:1;fill-rule:nonzero;stroke:none"
       id="path3730"
       inkscape:connector-curvature="0" />
    <path
       d="m 193.58878,324.56886 c 0.41888,0 0.899,0.0263 1.44,0.0788 0.54113,0.0524 1.07325,0.12225 1.597,0.20938 0.52338,0.0871 1.0035,0.17475 1.43963,0.26188 0.43649,0.0871 0.75937,0.16575 0.96875,0.23562 l -0.83763,4.241 c -0.38412,-0.13962 -1.02125,-0.3055 -1.91125,-0.4975 -0.89013,-0.192 -2.03312,-0.28812 -3.42925,-0.28812 -0.90775,0 -1.80637,0.0961 -2.6965,0.28812 -0.89,0.192 -1.47462,0.32275 -1.75387,0.39263 l 0,22.8805 -4.86963,0 0,-26.07413 c 1.152,-0.41912 2.58313,-0.81175 4.2935,-1.17812 1.71037,-0.36675 3.63013,-0.55 5.75925,-0.55"
       style="fill:#0052a5;fill-opacity:1;fill-rule:nonzero;stroke:none"
       id="path3732"
       inkscape:connector-curvature="0" />
    <path
       d="m 213.58966,337.39674 c 1.0475,0.80288 2.1555,1.7975 3.32474,2.9845 1.16963,1.18675 2.32125,2.46938 3.45575,3.84813 1.13463,1.379 2.20788,2.77512 3.22013,4.18887 1.012,1.41338 1.86737,2.73112 2.56537,3.95288 l -5.70687,0 c -0.733,-1.22176 -1.5795,-2.46963 -2.53937,-3.74351 -0.95988,-1.27412 -1.96338,-2.49587 -3.01076,-3.66512 -1.04712,-1.16937 -2.1115,-2.24262 -3.19362,-3.21987 -1.08213,-0.97763 -2.11188,-1.79788 -3.08913,-2.46088 l 0,13.08938 -4.8695,0 0,-39.792 4.8695,-0.83763 0,24.81763 c 0.83775,-0.838 1.7625,-1.76275 2.77488,-2.77513 1.01225,-1.01225 2.00687,-2.042 2.9845,-3.089 0.97725,-1.04712 1.90237,-2.05087 2.77475,-3.01075 0.87275,-0.95987 1.62312,-1.80637 2.25137,-2.53912 l 5.70725,0 c -0.80287,0.87237 -1.67562,1.83225 -2.61775,2.87962 -0.94262,1.047 -1.92012,2.10287 -2.93212,3.16775 -1.01238,1.06438 -2.0335,2.12913 -3.06325,3.1935 -1.02963,1.06475 -1.998,2.06825 -2.90588,3.01075"
       style="fill:#0052a5;fill-opacity:1;fill-rule:nonzero;stroke:none"
       id="path3734"
       inkscape:connector-curvature="0" />
    <path
       d="m 237.41278,348.86324 c 1.98962,0 3.46425,-0.26188 4.42412,-0.7855 0.95988,-0.52337 1.44,-1.36137 1.44,-2.51325 0,-1.18675 -0.47125,-2.12925 -1.41375,-2.82725 -0.9425,-0.698 -2.4955,-1.48362 -4.65975,-2.356 -1.04712,-0.41912 -2.05087,-0.8465 -3.01075,-1.283 -0.95987,-0.43612 -1.78875,-0.951 -2.48712,-1.5445 -0.698,-0.59312 -1.25638,-1.30887 -1.67525,-2.1465 -0.41875,-0.83762 -0.62825,-1.86775 -0.62825,-3.08912 0,-2.40876 0.89012,-4.31963 2.67025,-5.73338 1.78012,-1.4135 4.20587,-2.12037 7.27762,-2.12037 0.76813,0 1.536,0.0436 2.30388,0.13075 0.76787,0.0872 1.48362,0.19212 2.1465,0.31437 0.66337,0.12225 1.248,0.253 1.75425,0.3925 0.506,0.13963 0.89862,0.26188 1.17787,0.36638 l -0.89012,4.189 c -0.52338,-0.27925 -1.34363,-0.56738 -2.46075,-0.86426 -1.11688,-0.29662 -2.46088,-0.44499 -4.03163,-0.44499 -1.36137,0 -2.548,0.27062 -3.56037,0.81175 -1.01225,0.541 -1.51825,1.3875 -1.51825,2.53912 0,0.5935 0.11337,1.11713 0.34012,1.57075 0.22713,0.45388 0.57613,0.86413 1.04738,1.23063 0.47137,0.36637 1.056,0.70687 1.754,1.02075 0.698,0.31425 1.53562,0.646 2.51325,0.995 1.2915,0.48862 2.44312,0.96875 3.4555,1.44 1.01225,0.47087 1.87612,1.02075 2.59187,1.649 0.71538,0.62824 1.26538,1.38762 1.649,2.27762 0.38413,0.89013 0.57625,1.98075 0.57625,3.27225 0,2.51325 -0.93375,4.41575 -2.80137,5.70725 -1.86738,1.2915 -4.52875,1.93713 -7.9845,1.93713 -2.40838,0 -4.29338,-0.2005 -5.65475,-0.602 -1.36138,-0.40151 -2.28613,-0.70688 -2.77475,-0.91638 l 0.89,-4.1885 c 0.5585,0.20938 1.4485,0.52338 2.67025,0.94213 1.22175,0.41925 2.84462,0.62862 4.86925,0.62862"
       style="fill:#0052a5;fill-opacity:1;fill-rule:nonzero;stroke:none"
       id="path3736"
       inkscape:connector-curvature="0" />
    <path
       d="m 258.9844,325.14512 10.31463,0 0,4.08362 -10.31463,0 0,12.566 c 0,1.36125 0.1045,2.487 0.31438,3.37713 0.20937,0.89 0.52325,1.58812 0.94213,2.09437 0.41874,0.506 0.9425,0.86388 1.57074,1.07337 0.62825,0.20938 1.36138,0.31426 2.199,0.31426 1.46613,0 2.64438,-0.16588 3.53438,-0.4975 0.89012,-0.33163 1.5095,-0.56726 1.8585,-0.70688 l 0.9425,4.0315 c -0.48863,0.2445 -1.344,0.55 -2.56538,0.91638 -1.22175,0.36637 -2.61812,0.5495 -4.18887,0.5495 -1.85,0 -3.37713,-0.23563 -4.58113,-0.7065 -1.20437,-0.47125 -2.17275,-1.17813 -2.90587,-2.12063 -0.73313,-0.9425 -1.248,-2.103 -1.5445,-3.48163 -0.297,-1.37912 -0.44513,-2.97574 -0.44513,-4.79099 l 0,-24.29401 4.86925,-0.83787 0,8.42988 z"
       style="fill:#0052a5;fill-opacity:1;fill-rule:nonzero;stroke:none"
       id="path3738"
       inkscape:connector-curvature="0" />
    <path
       d="m 284.69216,348.86324 c 1.152,0 2.17275,-0.0263 3.06287,-0.0786 0.89012,-0.0525 1.632,-0.1485 2.22513,-0.28813 l 0,-8.11525 c -0.34901,-0.17462 -0.91588,-0.32312 -1.70138,-0.445 -0.78525,-0.12225 -1.73662,-0.1835 -2.8535,-0.1835 -0.73312,0 -1.50975,0.0524 -2.33013,0.15725 -0.82025,0.10462 -1.57062,0.32288 -2.25137,0.6545 -0.68062,0.33163 -1.24762,0.78513 -1.7015,1.36138 -0.45388,0.57575 -0.68062,1.33512 -0.68062,2.27762 0,1.745 0.55837,2.95788 1.67525,3.63863 1.11725,0.68062 2.63549,1.02112 4.55525,1.02112 z m -0.41876,-24.39888 c 1.95475,0 3.60388,0.253 4.94788,0.75901 1.34388,0.50637 2.42575,1.22174 3.246,2.14687 0.82025,0.92488 1.40487,2.02438 1.75425,3.2985 0.349,1.27412 0.52338,2.67913 0.52338,4.21475 l 0,17.01637 c -0.41888,0.0697 -1.0035,0.16588 -1.754,0.28813 -0.75038,0.12225 -1.59688,0.23563 -2.53938,0.34013 -0.94225,0.10487 -1.96337,0.20087 -3.06287,0.288 -1.0995,0.0873 -2.19013,0.13075 -3.27225,0.13075 -1.536,0 -2.9495,-0.15688 -4.241,-0.47088 -1.2915,-0.31425 -2.40875,-0.81175 -3.35088,-1.49238 -0.9425,-0.68074 -1.67562,-1.57925 -2.19937,-2.6965 -0.52338,-1.11687 -0.78513,-2.46087 -0.78513,-4.03162 0,-1.50087 0.30538,-2.79237 0.91625,-3.87425 0.61088,-1.08212 1.43963,-1.95475 2.487,-2.61813 1.04713,-0.66287 2.26888,-1.15187 3.66488,-1.46587 1.39637,-0.31425 2.86225,-0.47125 4.39837,-0.47125 0.48863,0 0.9945,0.0263 1.51825,0.0786 0.52375,0.0521 1.02088,0.12199 1.49213,0.20949 0.47125,0.0871 0.8815,0.16575 1.2305,0.23563 0.34912,0.0697 0.59325,0.12187 0.73275,0.157 l 0,-1.36138 c 0,-0.80287 -0.0871,-1.597 -0.26138,-2.38225 -0.17475,-0.78549 -0.489,-1.48349 -0.94262,-2.09437 -0.45388,-0.61088 -1.07325,-1.0995 -1.85875,-1.46588 -0.78525,-0.36674 -1.80638,-0.54987 -3.06288,-0.54987 -1.60575,0 -3.01075,0.11338 -4.21475,0.34012 -1.20437,0.22713 -2.10325,0.46276 -2.6965,0.70688 l -0.57612,-4.03162 c 0.62825,-0.27913 1.67562,-0.5495 3.1415,-0.81138 1.46625,-0.26188 3.05437,-0.39263 4.76475,-0.39263"
       style="fill:#0052a5;fill-opacity:1;fill-rule:nonzero;stroke:none"
       id="path3740"
       inkscape:connector-curvature="0" />
    <path
       d="m 307.36328,325.14512 10.31463,0 0,4.08362 -10.31463,0 0,12.566 c 0,1.36125 0.10462,2.487 0.31438,3.37713 0.20937,0.89 0.52324,1.58812 0.94212,2.09437 0.41888,0.506 0.9425,0.86388 1.57075,1.07337 0.62825,0.20938 1.36137,0.31426 2.199,0.31426 1.46625,0 2.64438,-0.16588 3.53437,-0.4975 0.89013,-0.33163 1.50951,-0.56726 1.8585,-0.70688 l 0.9425,4.0315 c -0.48862,0.2445 -1.344,0.55 -2.56537,0.91638 -1.22163,0.36637 -2.61813,0.5495 -4.18888,0.5495 -1.84987,0 -3.37712,-0.23563 -4.58112,-0.7065 -1.20438,-0.47125 -2.17275,-1.17813 -2.90588,-2.12063 -0.73312,-0.9425 -1.24787,-2.103 -1.5445,-3.48163 -0.29687,-1.37912 -0.445,-2.97574 -0.445,-4.79099 l 0,-24.29401 4.86913,-0.83787 0,8.42988 z"
       style="fill:#0052a5;fill-opacity:1;fill-rule:nonzero;stroke:none"
       id="path3742"
       inkscape:connector-curvature="0" />
    <path
       d="m 328.41128,325.14512 10.31462,0 0,4.08362 -10.31462,0 0,12.566 c 0,1.36125 0.1045,2.487 0.31425,3.37713 0.2095,0.89 0.52337,1.58812 0.94225,2.09437 0.41875,0.506 0.9425,0.86388 1.57075,1.07337 0.62812,0.20938 1.36125,0.31426 2.19887,0.31426 1.46625,0 2.64438,-0.16588 3.5345,-0.4975 0.89013,-0.33163 1.5095,-0.56726 1.8585,-0.70688 l 0.9425,4.0315 c -0.48862,0.2445 -1.344,0.55 -2.56537,0.91638 -1.22175,0.36637 -2.61813,0.5495 -4.18888,0.5495 -1.85,0 -3.37712,-0.23563 -4.58112,-0.7065 -1.20438,-0.47125 -2.17275,-1.17813 -2.90588,-2.12063 -0.73312,-0.9425 -1.248,-2.103 -1.5445,-3.48163 -0.297,-1.37912 -0.44512,-2.97574 -0.44512,-4.79099 l 0,-24.29401 4.86925,-0.83787 0,8.42988 z"
       style="fill:#0052a5;fill-opacity:1;fill-rule:nonzero;stroke:none"
       id="path3744"
       inkscape:connector-curvature="0" />
  </g>
</svg>
